<svg xmlns="http://www.w3.org/2000/svg" version="1.1" xmlns:xlink="http://www.w3.org/1999/xlink" xmlns:svgjs="http://svgjs.dev/svgjs" width="1500" height="265" viewBox="0 0 1500 265"><g transform="matrix(1,0,0,1,-0.9090909090909918,-1.710767732153414)"><svg viewBox="0 0 396 70" data-background-color="#ffffff" preserveAspectRatio="xMidYMid meet" height="265" width="1500" xmlns="http://www.w3.org/2000/svg" xmlns:xlink="http://www.w3.org/1999/xlink"><g id="tight-bounds" transform="matrix(1,0,0,1,0.2400000000000091,0.45190091038014657)"><svg viewBox="0 0 395.52 69.09619817923972" height="69.09619817923972" width="395.52"><g><svg viewBox="0 0 494.82720297775944 86.44487884665793" height="69.09619817923972" width="395.52"><g transform="matrix(1,0,0,1,0,11.94715764089122)"><svg viewBox="0 0 395.52 62.55056356487549" height="62.55056356487549" width="395.52"><g id="textblocktransform"><svg viewBox="0 0 395.52 62.55056356487549" height="62.55056356487549" width="395.52" id="textblock"><g><svg viewBox="0 0 395.52 62.55056356487549" height="62.55056356487549" width="395.52"><g transform="matrix(1,0,0,1,0,0)"><svg width="395.52" viewBox="4.3 -35.55 228.88 36.199999999999996" height="62.55056356487549" data-palette-color="#096a2e"><path d="M8.9 0L4.3 0 4.3-33 8.9-33 8.9 0ZM25.05-14.15L6.1-14.15 6.1-18.1 25.05-18.1 25.05-14.15ZM27.2-28.95L6.1-28.95 6.1-33 27.2-33 27.2-28.95ZM38.4 0.65L38.4 0.65Q36.3 0.65 34.6-0.18 32.9-1 31.9-2.63 30.9-4.25 30.9-6.75L30.9-6.75Q30.9-8.6 31.57-10 32.25-11.4 33.67-12.4 35.1-13.4 37.35-14.05 39.6-14.7 42.85-15.15L42.85-15.15Q44.7-15.4 45.87-15.65 47.05-15.9 47.6-16.48 48.15-17.05 48.15-18.2L48.15-18.2Q48.15-20.1 46.85-21.4 45.55-22.7 42.75-22.7L42.75-22.7Q41.3-22.7 39.8-22.2 38.3-21.7 37.17-20.53 36.05-19.35 35.75-17.25L35.75-17.25 31.55-18.65Q31.95-20.45 32.87-21.9 33.8-23.35 35.25-24.38 36.7-25.4 38.62-25.95 40.55-26.5 42.9-26.5L42.9-26.5Q46.15-26.5 48.32-25.4 50.5-24.3 51.57-22.03 52.65-19.75 52.65-16.2L52.65-16.2 52.65-10.45Q52.65-8.9 52.72-7.08 52.8-5.25 52.95-3.43 53.1-1.6 53.25 0L53.25 0 49.05 0Q48.9-1.6 48.77-3.2 48.65-4.8 48.6-6.4L48.6-6.4 47.95-6.4Q47.2-4.55 45.95-2.95 44.7-1.35 42.82-0.35 40.95 0.65 38.4 0.65ZM39.75-3.05L39.75-3.05Q40.85-3.05 41.97-3.4 43.1-3.75 44.22-4.55 45.35-5.35 46.37-6.6 47.4-7.85 48.2-9.6L48.2-9.6 48.2-14.6 49.5-14.35Q48.7-13.55 47.37-13.15 46.05-12.75 44.45-12.5 42.85-12.25 41.25-11.98 39.65-11.7 38.32-11.18 37-10.65 36.2-9.7 35.4-8.75 35.4-7.1L35.4-7.1Q35.4-5.1 36.6-4.08 37.8-3.05 39.75-3.05ZM64.84 0L60.3 0 60.3-14 60.3-25.85 64.39-25.85 63.99-16.85 64.84-16.85Q65.3-19.8 66.25-21.95 67.19-24.1 68.77-25.3 70.34-26.5 72.69-26.5L72.69-26.5Q73.19-26.5 73.84-26.43 74.5-26.35 75.34-26.05L75.34-26.05 75.09-21.3Q74.34-21.6 73.59-21.73 72.84-21.85 72.14-21.85L72.14-21.85Q70.19-21.85 68.77-20.6 67.34-19.35 66.39-17.23 65.44-15.1 64.84-12.45L64.84-12.45 64.84 0ZM84.79 0L80.24 0 80.24-16 80.24-25.85 84.29-25.85 83.84-17.65 84.69-17.65Q85.34-20.6 86.44-22.58 87.54-24.55 89.17-25.53 90.79-26.5 92.89-26.5L92.89-26.5Q95.39-26.5 96.99-25.28 98.59-24.05 99.37-22.1 100.14-20.15 100.14-17.8L100.14-17.8 100.94-17.8Q101.49-20.6 102.64-22.55 103.79-24.5 105.49-25.5 107.19-26.5 109.39-26.5L109.39-26.5Q111.39-26.5 112.89-25.7 114.39-24.9 115.44-23.33 116.49-21.75 116.99-19.45 117.49-17.15 117.49-14.15L117.49-14.15 117.49 0 112.94 0 112.94-13.55Q112.94-16.5 112.39-18.48 111.84-20.45 110.77-21.43 109.69-22.4 108.04-22.4L108.04-22.4Q106.19-22.4 104.72-21.13 103.24-19.85 102.32-17.57 101.39-15.3 101.09-12.4L101.09-12.4 101.09 0 96.64 0 96.64-13.1Q96.64-16.2 96.09-18.25 95.54-20.3 94.47-21.35 93.39-22.4 91.69-22.4L91.69-22.4Q89.69-22.4 88.24-21.03 86.79-19.65 85.92-17.35 85.04-15.05 84.79-12.2L84.79-12.2 84.79 0ZM137.69 0L130.99 0 122.74-33 127.69-33 134.29-4.15 134.74-4.15 141.54-33 147.74-33 154.44-4.15 154.89-4.15 161.64-33 166.44-33 157.99 0 151.39 0 144.84-28.8 144.39-28.8 137.69 0ZM176.69 0L172.14 0 172.14-25.85 176.69-25.85 176.69 0ZM174.44-30.35L174.44-30.35Q172.84-30.35 172.04-31 171.24-31.65 171.24-32.95L171.24-32.95Q171.24-34.25 172.04-34.9 172.84-35.55 174.39-35.55L174.39-35.55Q175.99-35.55 176.79-34.9 177.59-34.25 177.59-32.95L177.59-32.95Q177.59-31.7 176.79-31.03 175.99-30.35 174.44-30.35ZM194.19 0.65L194.19 0.65Q191.49 0.65 189.39 0.08 187.29-0.5 185.89-1.58 184.49-2.65 183.74-4.15 182.99-5.65 182.94-7.45L182.94-7.45 186.79-8.45Q186.69-6.8 187.61-5.58 188.54-4.35 190.26-3.7 191.99-3.05 194.44-3.05L194.44-3.05Q197.39-3.05 199.01-4.05 200.64-5.05 200.64-6.8L200.64-6.8Q200.64-8.2 199.74-8.97 198.84-9.75 197.26-10.23 195.69-10.7 193.54-11.1L193.54-11.1Q191.74-11.5 189.94-12 188.14-12.5 186.66-13.33 185.19-14.15 184.29-15.5 183.39-16.85 183.39-18.85L183.39-18.85Q183.39-21.2 184.64-22.9 185.89-24.6 188.19-25.55 190.49-26.5 193.69-26.5L193.69-26.5Q196.89-26.5 199.14-25.53 201.39-24.55 202.69-22.8 203.99-21.05 204.14-18.7L204.14-18.7 200.19-17.7Q200.14-19.35 199.31-20.5 198.49-21.65 196.99-22.23 195.49-22.8 193.49-22.8L193.49-22.8Q190.84-22.8 189.29-21.8 187.74-20.8 187.74-19.05L187.74-19.05Q187.74-17.75 188.66-16.95 189.59-16.15 191.19-15.7 192.79-15.25 194.74-14.8L194.74-14.8Q196.74-14.4 198.56-13.9 200.39-13.4 201.84-12.6 203.29-11.8 204.14-10.48 204.99-9.15 204.99-7.1L204.99-7.1Q204.99-4.55 203.64-2.83 202.29-1.1 199.86-0.23 197.44 0.65 194.19 0.65ZM222.18 0.65L222.18 0.65Q219.13 0.65 216.81-0.28 214.48-1.2 212.88-2.95 211.28-4.7 210.48-7.1 209.68-9.5 209.68-12.5L209.68-12.5Q209.68-15.55 210.48-18.1 211.28-20.65 212.83-22.55 214.38-24.45 216.63-25.48 218.88-26.5 221.78-26.5L221.78-26.5Q224.33-26.5 226.43-25.65 228.53-24.8 230.01-23.03 231.48-21.25 232.23-18.57 232.98-15.9 232.83-12.3L232.83-12.3 212.53-12.15 212.53-15.25 230.08-15.4 228.53-13.3Q228.78-16.45 227.93-18.5 227.08-20.55 225.51-21.6 223.93-22.65 221.78-22.65L221.78-22.65Q219.48-22.65 217.73-21.45 215.98-20.25 215.06-18 214.13-15.75 214.13-12.55L214.13-12.55Q214.13-7.95 216.18-5.53 218.23-3.1 222.23-3.1L222.23-3.1Q223.83-3.1 225.01-3.48 226.18-3.85 227.01-4.53 227.83-5.2 228.36-6.1 228.88-7 229.18-8.05L229.18-8.05 233.18-7.1Q232.73-5.3 231.81-3.88 230.88-2.45 229.51-1.45 228.13-0.45 226.33 0.1 224.53 0.65 222.18 0.65Z" opacity="1" transform="matrix(1,0,0,1,0,0)" fill="#096a2e" class="wordmark-text-0" data-fill-palette-color="primary" id="text-0"></path></svg></g></svg></g></svg></g></svg></g><g transform="matrix(1,0,0,1,410.2866868441415,0)"><svg viewBox="0 0 84.54051613361793 86.44487884665793" height="86.44487884665793" width="84.54051613361793"><g><svg version="1.1" xmlns="http://www.w3.org/2000/svg" xmlns:xlink="http://www.w3.org/1999/xlink" x="0" y="0" viewBox="0 0 97.79702078544399 100" enable-background="new 0 0 97.797 100" xml:space="preserve" id="icon-0" width="84.54051613361793" height="86.44487884665793" class="icon-icon-0" data-fill-palette-color="accent"><g fill="#096a2e" data-fill-palette-color="accent"><path fill="#096a2e" d="M92.949 28.574A50 50 0 0 0 91.032 24.962C59.269 31.512 20.787 48.742 3.833 74.27A50.33 50.33 0 0 0 21.378 92.707C36.124 64.16 74.268 35.392 92.949 28.574" data-fill-palette-color="accent"></path><path fill="#096a2e" d="M88.161 20.564C79.049 8.101 64.326 0 47.705 0 26.224 0 7.908 13.525 0.79 32.522 26.45 19.774 66.517 17.275 88.161 20.564" data-fill-palette-color="accent"></path><path fill="#096a2e" d="M51.853 100C77.576 97.889 97.797 76.359 97.797 50.092A50 50 0 0 0 93.936 30.78C76.481 48.621 58.938 74.629 51.853 100" data-fill-palette-color="accent"></path><rect x="10.784" y="47.083" fill="#096a2e" width="1.575" height="14.367" data-fill-palette-color="accent"></rect><path fill="#096a2e" d="M8.768 35.951C11.571 38.581 12.484 44.221 12.32 47.062 17.891 42.537 11.755 33.854 6.889 32.747 7.219 34.955 6.996 36.998 6.666 38.823 5.946 42.848 7.825 46.772 10.866 47.093 10.946 45.055 11.571 42.173 8.768 35.951" data-fill-palette-color="accent"></path><path fill="#096a2e" d="M2.507 48.42C4.173 47.659 8.387 48.019 10.206 48.5 7.021 43.682 1.279 46.665 0 48.998 1.53 49.236 2.834 49.81 3.973 50.404 6.484 51.717 9.469 51.289 10.315 49.342 8.983 48.871 4.428 48.385 2.507 48.42" data-fill-palette-color="accent"></path><path fill="#096a2e" d="M18.505 46.233C18.109 48.015 15.278 51.165 13.803 52.322 19.564 52.69 20.648 46.309 19.557 43.883 18.443 44.96 17.198 45.654 16.038 46.203 13.473 47.414 12.017 50.057 13.058 51.902 14.244 51.126 17.379 47.783 18.505 46.233" data-fill-palette-color="accent"></path><rect x="45.054" y="83.666" fill="#096a2e" width="1.575" height="14.367" data-fill-palette-color="accent"></rect><path fill="#096a2e" d="M43.039 72.534C45.842 75.164 46.755 80.804 46.591 83.643 52.163 79.12 46.026 70.435 41.16 69.33 41.49 71.538 41.266 73.583 40.937 75.405 40.217 79.429 42.096 83.356 45.137 83.676 45.216 81.638 45.841 78.755 43.039 72.534" data-fill-palette-color="accent"></path><path fill="#096a2e" d="M36.778 85.003C38.444 84.24 42.658 84.602 44.476 85.082 41.29 80.264 35.549 83.246 34.269 85.579 35.799 85.817 37.104 86.391 38.242 86.985 40.753 88.298 43.738 87.87 44.584 85.926 43.255 85.452 38.7 84.968 36.778 85.003" data-fill-palette-color="accent"></path><path fill="#096a2e" d="M52.779 82.815C52.383 84.598 49.553 87.748 48.078 88.905 53.839 89.271 54.924 82.89 53.832 80.466 52.718 81.541 51.473 82.236 50.313 82.785 47.751 83.995 46.292 86.639 47.335 88.483 48.516 87.707 51.651 84.363 52.779 82.815" data-fill-palette-color="accent"></path><rect x="31.124" y="35.936" fill="#096a2e" width="1.145" height="10.435" data-fill-palette-color="accent"></rect><path fill="#096a2e" d="M29.66 27.853C31.695 29.762 32.358 33.858 32.238 35.92 36.286 32.635 31.827 26.328 28.296 25.527 28.536 27.13 28.373 28.615 28.132 29.939 27.611 32.86 28.974 35.712 31.182 35.946 31.241 34.464 31.695 32.37 29.66 27.853" data-fill-palette-color="accent"></path><path fill="#096a2e" d="M25.113 36.907C26.321 36.355 29.383 36.616 30.705 36.965 28.389 33.466 24.222 35.632 23.293 37.326 24.404 37.499 25.352 37.915 26.178 38.347 28.003 39.302 30.169 38.99 30.783 37.578 29.816 37.232 26.509 36.882 25.113 36.907" data-fill-palette-color="accent"></path><path fill="#096a2e" d="M36.733 35.32C36.444 36.613 34.39 38.901 33.319 39.741 37.502 40.007 38.29 35.373 37.499 33.611 36.688 34.391 35.786 34.897 34.943 35.296 33.08 36.174 32.023 38.096 32.779 39.434 33.638 38.873 35.916 36.444 36.733 35.32" data-fill-palette-color="accent"></path><rect x="58.464" y="65.586" fill="#096a2e" width="1.146" height="10.438" data-fill-palette-color="accent"></rect><path fill="#096a2e" d="M57 57.504C59.035 59.413 59.697 63.51 59.58 65.571 63.627 62.286 59.169 55.978 55.637 55.176 55.878 56.78 55.715 58.266 55.472 59.59 54.952 62.512 56.315 65.363 58.523 65.598 58.582 64.114 59.036 62.021 57 57.504" data-fill-palette-color="accent"></path><path fill="#096a2e" d="M52.453 66.561C53.662 66.006 56.723 66.267 58.046 66.618 55.731 63.118 51.564 65.285 50.635 66.978 51.743 67.152 52.694 67.569 53.521 67.999 55.348 68.952 57.512 68.643 58.127 67.228 57.159 66.885 53.849 66.534 52.453 66.561" data-fill-palette-color="accent"></path><path fill="#096a2e" d="M64.073 64.97C63.785 66.262 61.731 68.552 60.659 69.393 64.842 69.657 65.629 65.026 64.839 63.262 64.029 64.043 63.126 64.55 62.284 64.948 60.422 65.826 59.362 67.747 60.12 69.084 60.978 68.522 63.254 66.094 64.073 64.97" data-fill-palette-color="accent"></path><rect x="50.152" y="28.824" fill="#096a2e" width="0.818" height="7.002" data-fill-palette-color="accent"></rect><path fill="#096a2e" d="M49.015 23.401C50.563 24.683 51.065 27.429 50.977 28.814 54.055 26.61 50.663 22.378 47.975 21.839 48.159 22.917 48.034 23.911 47.851 24.799 47.456 26.76 48.493 28.672 50.173 28.828 50.214 27.838 50.559 26.432 49.015 23.401" data-fill-palette-color="accent"></path><path fill="#096a2e" d="M45.555 29.477C46.475 29.106 48.8 29.281 49.807 29.515 48.047 27.168 44.878 28.62 44.172 29.757 45.017 29.873 45.737 30.153 46.366 30.443 47.754 31.083 49.4 30.873 49.866 29.925 49.132 29.695 46.618 29.462 45.555 29.477" data-fill-palette-color="accent"></path><path fill="#096a2e" d="M54.392 28.412C54.173 29.281 52.613 30.815 51.794 31.379 54.974 31.556 55.574 28.447 54.972 27.265 54.355 27.789 53.668 28.13 53.028 28.395 51.612 28.985 50.809 30.273 51.384 31.173 52.036 30.797 53.77 29.167 54.392 28.412" data-fill-palette-color="accent"></path><rect x="70.946" y="49.618" fill="#096a2e" width="0.816" height="7.002" data-fill-palette-color="accent"></rect><path fill="#096a2e" d="M69.807 44.197C71.355 45.478 71.86 48.225 71.769 49.608 74.848 47.406 71.456 43.172 68.77 42.633 68.953 43.711 68.829 44.706 68.647 45.595 68.251 47.555 69.287 49.467 70.967 49.624 71.009 48.632 71.355 47.228 69.807 44.197" data-fill-palette-color="accent"></path><path fill="#096a2e" d="M66.349 50.271C67.268 49.901 69.595 50.076 70.602 50.309 68.842 47.962 65.672 49.415 64.965 50.551 65.81 50.667 66.531 50.947 67.16 51.237 68.545 51.878 70.192 51.668 70.66 50.72 69.925 50.489 67.412 50.256 66.349 50.271" data-fill-palette-color="accent"></path><path fill="#096a2e" d="M75.187 49.207C74.965 50.076 73.406 51.609 72.586 52.172 75.769 52.35 76.368 49.241 75.766 48.06 75.148 48.584 74.463 48.922 73.822 49.189 72.408 49.779 71.602 51.067 72.176 51.966 72.831 51.589 74.563 49.96 75.187 49.207" data-fill-palette-color="accent"></path><rect x="65.704" y="25.275" fill="#096a2e" width="0.551" height="4.727" data-fill-palette-color="accent"></rect><path fill="#096a2e" d="M64.935 21.616C65.977 22.481 66.318 24.334 66.257 25.269 68.335 23.78 66.049 20.924 64.232 20.562 64.356 21.289 64.271 21.96 64.149 22.561 63.88 23.884 64.583 25.176 65.716 25.281 65.745 24.61 65.977 23.661 64.935 21.616" data-fill-palette-color="accent"></path><path fill="#096a2e" d="M62.598 25.716C63.217 25.466 64.787 25.584 65.469 25.743 64.281 24.158 62.142 25.14 61.665 25.906 62.235 25.985 62.725 26.174 63.148 26.369 64.084 26.801 65.195 26.659 65.507 26.019 65.013 25.863 63.315 25.707 62.598 25.716" data-fill-palette-color="accent"></path><path fill="#096a2e" d="M68.565 24.997C68.416 25.584 67.359 26.619 66.812 27 68.958 27.12 69.36 25.022 68.955 24.223 68.539 24.577 68.077 24.806 67.643 24.987 66.688 25.384 66.147 26.253 66.535 26.861 66.971 26.606 68.145 25.508 68.565 24.997" data-fill-palette-color="accent"></path></g></svg></g></svg></g></svg></g><defs></defs></svg><rect width="395.52" height="69.09619817923972" fill="none" stroke="none" visibility="hidden"></rect></g></svg></g></svg>